<?xml version="1.0" encoding="utf-8"?>
<!-- Generator: Adobe Illustrator 19.2.0, SVG Export Plug-In . SVG Version: 6.00 Build 0)  -->
<svg version="1.1" id="Layer_1" xmlns="http://www.w3.org/2000/svg" xmlns:xlink="http://www.w3.org/1999/xlink" x="0px" y="0px"
	 viewBox="0 0 397.6 39.5" style="enable-background:new 0 0 397.6 39.5;" xml:space="preserve">
<style type="text/css">
	.st0{fill:#B2B2B5;}
</style>
<g>
	<path class="st0" d="M389.8,8.8c-2.8,0-4.9,1-6,2.6v-2h-6.3v21h6.3V18.9c0-3,1.6-4.3,3.9-4.3c2,0,3.6,1.2,3.6,3.8v12h6.3V17.5
		C397.6,11.8,394,8.8,389.8,8.8 M364.1,24.8c-2.7,0-4.8-2-4.8-4.9s2.1-4.9,4.8-4.9c2.7,0,4.8,2,4.8,4.9S366.8,24.8,364.1,24.8
		 M364.1,30.9c6.2,0,11.1-4.8,11.1-11.1s-4.9-11.1-11.1-11.1S353,13.5,353,19.8S357.9,30.9,364.1,30.9 M343.9,30.4h6.3v-21h-6.3
		V30.4z M347.1,7.5c2.1,0,3.8-1.7,3.8-3.8S349.1,0,347.1,0s-3.8,1.7-3.8,3.8S345,7.5,347.1,7.5 M341.2,15.4v-6h-4.3V3.5l-6.3,1.9v4
		h-3.4v6h3.4v7.4c0,5.9,2.4,8.3,10.6,7.5v-5.7c-2.8,0.2-4.3,0-4.3-1.8v-7.4H341.2z M316.3,30.9c4.1,0,7.7-2.1,9.5-5.4l-5.5-3.1
		c-0.7,1.5-2.2,2.3-4.1,2.3c-2.7,0-4.7-2-4.7-4.9s2-4.9,4.7-4.9c1.8,0,3.4,0.9,4.1,2.3l5.5-3.2c-1.8-3.2-5.4-5.4-9.5-5.4
		c-6.4,0-11.1,4.8-11.1,11.1S309.9,30.9,316.3,30.9 M287.9,19.5l3.4-10.8l3.4,10.8H287.9z M298.3,30.4h7.3L295.6,1H287l-10,29.4h7.3
		l1.5-4.6h10.9L298.3,30.4z M261.4,13.1V9.4h-6.3v21h6.3v-9.5c0-4.2,3.7-5.2,6.3-4.8V9C265,9,262.2,10.3,261.4,13.1 M241.2,24.8
		c-2.7,0-4.8-2-4.8-4.9s2.1-4.9,4.8-4.9s4.8,2,4.8,4.9S244,24.8,241.2,24.8 M241.2,30.9c6.2,0,11.1-4.8,11.1-11.1
		s-4.9-11.1-11.1-11.1c-6.2,0-11.1,4.8-11.1,11.1S235.1,30.9,241.2,30.9 M229.7,6.5v-6c-7-0.4-10.2,3.1-10.2,9h-2.8v6h2.8v14.9h6.3
		v-15h3.9v-6h-3.9C225.8,7,227.4,6.2,229.7,6.5 M193.6,24.3c-3,0-5.1-2-5.1-4.9s2.1-4.9,5.1-4.9s5.1,2,5.1,4.9
		S196.5,24.3,193.6,24.3 M198.6,9.4v2.1c-1.4-1.7-3.4-2.7-6.1-2.7c-6,0-10.3,4.9-10.3,10.7s4.4,10.7,10.3,10.7c2.7,0,4.7-1,6.1-2.7
		v1.9c0,3-1.8,4.5-4.7,4.5c-2.8,0-4-1.2-4.8-2.6l-5.4,3.1c1.9,3.4,5.6,5.1,9.9,5.1c5.6,0,11.1-3,11.1-10V9.4H198.6z M171.9,8.8
		c-2.8,0-4.9,1-6,2.6v-2h-6.3v21h6.3V18.9c0-3,1.6-4.3,3.9-4.3c2,0,3.6,1.2,3.6,3.8v12h6.3V17.5C179.8,11.8,176.2,8.8,171.9,8.8
		 M149.6,30.4h6.3v-21h-6.3V30.4z M152.7,7.5c2.1,0,3.8-1.7,3.8-3.8S154.8,0,152.7,0s-3.8,1.7-3.8,3.8S150.7,7.5,152.7,7.5
		 M138.3,24.5l7.9-10.9V9.4h-15.9v5.9h7.5l-7.9,10.9v4.2h16.8v-5.9C146.7,24.5,138.3,24.5,138.3,24.5z M120.8,30.4h6.3v-21h-6.3
		V30.4z M124,7.5c2.1,0,3.8-1.7,3.8-3.8S126,0,124,0s-3.8,1.7-3.8,3.8S121.9,7.5,124,7.5 M109.9,8.8c-2.8,0-4.9,1-6,2.6v-2h-6.3v21
		h6.3V18.9c0-3,1.6-4.3,3.9-4.3c2,0,3.6,1.2,3.6,3.8v12h6.3V17.5C117.8,11.8,114.2,8.8,109.9,8.8 M83.4,25c-2.9,0-5-2-5-5.1
		s2.1-5.1,5-5.1s5,2,5,5.1S86.3,25,83.4,25 M88.4,9.4v2C87,9.8,85,8.8,82.2,8.8c-5.5,0-10,4.8-10,11.1S76.7,31,82.2,31
		c2.8,0,4.9-1,6.2-2.6v2h6.3v-21H88.4z M58.2,24.3c-3,0-5.1-2-5.1-4.9s2.1-4.9,5.1-4.9s5.1,2,5.1,4.9S61.2,24.3,58.2,24.3 M63.3,9.4
		v2.1c-1.4-1.7-3.4-2.7-6.1-2.7c-6,0-10.3,4.9-10.3,10.7s4.4,10.7,10.3,10.7c2.7,0,4.7-1,6.1-2.7v1.9c0,3-1.8,4.5-4.7,4.5
		c-2.8,0-4-1.2-4.8-2.6l-5.4,3.1c1.9,3.4,5.6,5.1,9.9,5.1c5.6,0,11.1-3,11.1-10V9.4H63.3z M39.5,13.1V9.4h-6.3v21h6.3v-9.5
		c0-4.2,3.7-5.2,6.3-4.8V9C43.2,9,40.4,10.3,39.5,13.1 M15.3,24.4c-4.8,0-8.6-3.5-8.6-8.7S10.5,7,15.3,7s8.6,3.5,8.6,8.7
		S20,24.4,15.3,24.4 M15.3,30.9c8.4,0,15.3-6.6,15.3-15.3S23.7,0.4,15.3,0.4S0,7,0,15.7S6.8,30.9,15.3,30.9"/>
</g>
</svg>
