<?xml version="1.0" encoding="utf-8"?>
<!-- Generator: Adobe Illustrator 21.0.0, SVG Export Plug-In . SVG Version: 6.00 Build 0)  -->
<svg version="1.0" id="Layer_1" xmlns="http://www.w3.org/2000/svg" xmlns:xlink="http://www.w3.org/1999/xlink" x="0px" y="0px"
	 viewBox="0 0 130 49" style="enable-background:new 0 0 130 49;" xml:space="preserve">
<style type="text/css">
	.st0{fill:#FFFFFF;}
</style>
<g>
	<path class="st0" d="M103.4,31.2l3.9-14.4l3.9,14.4H103.4z M115.6,47.9H130L115.1,1.1H99.5L84.6,47.9h14.4l1.6-6H114L115.6,47.9z"
		/>
	<path class="st0" d="M88.6,14.1v-13H54.9v46.8h13.4V33.1h16v-13h-16v-6.1H88.6z"/>
	<path class="st0" d="M24.8,0C11,0,0,10.7,0,24.5C0,38.3,11,49,24.8,49c13.8,0,24.8-10.6,24.8-24.5C49.6,10.7,38.6,0,24.8,0z
		 M24.8,35.9c-6.6,0-11.4-4.9-11.4-11.4c0-6.5,4.8-11.4,11.4-11.4c6.6,0,11.4,4.9,11.4,11.4C36.2,31,31.4,35.9,24.8,35.9z"/>
</g>
</svg>
