<?xml version="1.0" encoding="utf-8"?>
<!-- Generator: Adobe Illustrator 21.1.0, SVG Export Plug-In . SVG Version: 6.00 Build 0)  -->
<svg version="1.1" id="Layer_1" xmlns="http://www.w3.org/2000/svg" xmlns:xlink="http://www.w3.org/1999/xlink" x="0px" y="0px"
	 viewBox="0 0 345.3 68.3" style="enable-background:new 0 0 345.3 68.3;" xml:space="preserve">
<style type="text/css">
	.st0{fill:#006CA2;}
	.st1{fill:#40C0E7;}
	.st2{fill:#FBC21A;}
	.st3{fill:none;stroke:#875A3B;stroke-width:2;stroke-miterlimit:10;}
</style>
<g>
	<path class="st0" d="M4.5,56.1C2,55,0,51.8,0,49.1v-21c0-2.7,2-5.9,4.5-7l25-11.4c2.5-1.1,6.5-1.1,9,0l25,11.4
		c2.5,1.1,4.5,4.3,4.5,7v21c0,2.7-2,5.9-4.5,7l-25,11.4c-2.5,1.1-6.5,1.1-9,0L4.5,56.1z"/>
	<path class="st1" d="M38.5,36.6c-2.5,1.1-6.5,1.1-9,0l-25-11.4c-2.5-1.1-2.5-3,0-4.1l25-11.4c2.5-1.1,6.5-1.1,9,0l25,11.4
		c2.5,1.1,2.5,3,0,4.1L38.5,36.6z"/>
	<path class="st0" d="M45.5,29.8c-0.6,0.3-1.6,0.3-2.2,0L19.5,19c-0.6-0.3-0.6-0.7,0-1l3-1.3c0.6-0.3,1.6-0.3,2.2,0l23.8,10.8
		c0.6,0.3,0.6,0.7,0,1L45.5,29.8z"/>
	<path class="st2" d="M43.5,28.4C43.5,28.4,43.5,28.4,43.5,28.4l-20.6-9.3c0,0,0,0,0,0L30,0c0,0,0,0,0,0l20.6,9.4c0,0,0,0,0,0
		L43.5,28.4z"/>
	<line class="st3" x1="43.5" y1="28.4" x2="50.6" y2="9.4"/>
</g>
<g>
	<path d="M90.5,9.4h27.7v4.7H95.5v11.6h20.9v4.4H95.5V43h23v4.5H90.5V9.4z"/>
	<path d="M127.1,19.7l7.4,22.6l7.7-22.6h5.1l-10.5,27.8h-5l-10.3-27.8H127.1z"/>
	<path d="M168.6,20.5c1.8,0.9,3.2,2.1,4.2,3.6c0.9,1.4,1.5,3,1.9,4.9c0.3,1.3,0.4,3.3,0.4,6.1h-20.2c0.1,2.8,0.7,5.1,2,6.8
		c1.2,1.7,3.2,2.6,5.7,2.6c2.4,0,4.4-0.8,5.8-2.4c0.8-0.9,1.4-2,1.7-3.3h4.6c-0.1,1-0.5,2.2-1.2,3.4c-0.7,1.3-1.4,2.3-2.3,3.1
		c-1.4,1.4-3.2,2.3-5.2,2.8c-1.1,0.3-2.4,0.4-3.8,0.4c-3.4,0-6.4-1.3-8.7-3.8s-3.6-6-3.6-10.6c0-4.5,1.2-8.1,3.6-10.9
		c2.4-2.8,5.6-4.2,9.4-4.2C164.8,19.1,166.7,19.6,168.6,20.5z M170.2,31.4c-0.2-2-0.6-3.6-1.3-4.9c-1.3-2.2-3.4-3.4-6.4-3.4
		c-2.1,0-3.9,0.8-5.4,2.3c-1.4,1.5-2.2,3.5-2.3,5.9H170.2z"/>
	<path d="M181.1,19.7h4.4v4.8c0.4-0.9,1.3-2.1,2.7-3.4c1.4-1.3,3.1-2,4.9-2c0.1,0,0.2,0,0.4,0s0.6,0.1,1.1,0.1v4.9
		c-0.3-0.1-0.5-0.1-0.8-0.1c-0.2,0-0.5,0-0.8,0c-2.4,0-4.2,0.8-5.4,2.3c-1.3,1.5-1.9,3.3-1.9,5.2v16h-4.7V19.7z"/>
	<path d="M216,19.7h5.2c-0.7,1.8-2.1,5.9-4.4,12.2c-1.7,4.8-3.1,8.7-4.3,11.7c-2.7,7.1-4.6,11.4-5.7,13c-1.1,1.6-3,2.3-5.7,2.3
		c-0.7,0-1.2,0-1.5-0.1s-0.8-0.1-1.3-0.3v-4.3c0.8,0.2,1.4,0.4,1.8,0.4c0.4,0.1,0.7,0.1,1,0.1c0.9,0,1.5-0.1,1.9-0.4
		c0.4-0.3,0.7-0.6,1-1c0.1-0.1,0.4-0.8,0.9-2.1c0.5-1.3,0.9-2.2,1.2-2.8l-10.3-28.6h5.3l7.4,22.6L216,19.7z"/>
	<path d="M228.9,9.4l11,32.5l10.8-32.5h5.8l-13.9,38.1H237L223.2,9.4H228.9z"/>
	<path d="M277.9,22.5c2.5,2.4,3.7,5.9,3.7,10.5c0,4.5-1.1,8.2-3.2,11.1c-2.2,2.9-5.5,4.4-10.1,4.4c-3.8,0-6.8-1.3-9-3.9
		c-2.2-2.6-3.3-6.1-3.3-10.4c0-4.7,1.2-8.4,3.5-11.1s5.5-4.1,9.5-4.1C272.4,18.9,275.4,20.1,277.9,22.5z M275,41
		c1.1-2.3,1.7-4.9,1.7-7.8c0-2.6-0.4-4.7-1.2-6.3c-1.3-2.6-3.5-3.8-6.7-3.8c-2.8,0-4.9,1.1-6.2,3.3c-1.3,2.2-1.9,4.8-1.9,7.9
		c0,3,0.6,5.4,1.9,7.4c1.3,2,3.3,3,6.1,3C271.8,44.5,273.9,43.3,275,41z"/>
	<path d="M288.3,12h4.7v7.8h4.4v3.8H293v18.1c0,1,0.3,1.6,1,1.9c0.4,0.2,1,0.3,1.8,0.3c0.2,0,0.5,0,0.7,0c0.3,0,0.6,0,0.9-0.1v3.7
		c-0.5,0.2-1.1,0.3-1.7,0.3c-0.6,0.1-1.2,0.1-1.9,0.1c-2.2,0-3.7-0.6-4.4-1.7c-0.8-1.1-1.2-2.6-1.2-4.3V23.5h-3.8v-3.8h3.8V12z"/>
	<path d="M319.3,20.5c1.8,0.9,3.2,2.1,4.2,3.6c0.9,1.4,1.5,3,1.9,4.9c0.3,1.3,0.4,3.3,0.4,6.1h-20.2c0.1,2.8,0.7,5.1,2,6.8
		c1.2,1.7,3.1,2.6,5.7,2.6c2.4,0,4.4-0.8,5.8-2.4c0.8-0.9,1.4-2,1.7-3.3h4.6c-0.1,1-0.5,2.2-1.2,3.4c-0.7,1.3-1.4,2.3-2.3,3.1
		c-1.4,1.4-3.2,2.3-5.2,2.8c-1.1,0.3-2.4,0.4-3.8,0.4c-3.4,0-6.4-1.3-8.7-3.8c-2.4-2.5-3.6-6-3.6-10.6c0-4.5,1.2-8.1,3.6-10.9
		c2.4-2.8,5.6-4.2,9.4-4.2C315.5,19.1,317.4,19.6,319.3,20.5z M320.9,31.4c-0.2-2-0.6-3.6-1.3-4.9c-1.3-2.2-3.4-3.4-6.4-3.4
		c-2.1,0-3.9,0.8-5.4,2.3c-1.4,1.5-2.2,3.5-2.3,5.9H320.9z"/>
	<path d="M331.8,19.7h4.4v4.8c0.4-0.9,1.3-2.1,2.7-3.4c1.4-1.3,3.1-2,4.9-2c0.1,0,0.2,0,0.4,0c0.2,0,0.6,0.1,1.1,0.1v4.9
		c-0.3-0.1-0.5-0.1-0.8-0.1c-0.2,0-0.5,0-0.8,0c-2.4,0-4.2,0.8-5.4,2.3c-1.3,1.5-1.9,3.3-1.9,5.2v16h-4.7V19.7z"/>
</g>
</svg>
