<?xml version="1.0" encoding="utf-8"?>
<!-- Generator: Adobe Illustrator 21.1.0, SVG Export Plug-In . SVG Version: 6.00 Build 0)  -->
<svg version="1.1" id="Layer_1" xmlns="http://www.w3.org/2000/svg" xmlns:xlink="http://www.w3.org/1999/xlink" x="0px" y="0px"
	 viewBox="0 0 74 74" style="enable-background:new 0 0 74 74;" xml:space="preserve">
<style type="text/css">
	.st0{fill:#006CA2;}
	.st1{fill:#40C0E7;}
	.st2{fill:#FBC21A;}
	.st3{fill:none;stroke:#875A3B;stroke-width:2;stroke-miterlimit:10;}
</style>
<g>
	<path class="st0" d="M7.5,59.7C5,58.6,3,55.4,3,52.7v-21c0-2.7,2-5.9,4.5-7l25-11.4c2.5-1.1,6.5-1.1,9,0l25,11.4
		c2.5,1.1,4.5,4.3,4.5,7v21c0,2.7-2,5.9-4.5,7L41.5,71c-2.5,1.1-6.5,1.1-9,0L7.5,59.7z"/>
	<path class="st1" d="M41.5,40.1c-2.5,1.1-6.5,1.1-9,0l-25-11.4c-2.5-1.1-2.5-3,0-4.1l25-11.4c2.5-1.1,6.5-1.1,9,0l25,11.4
		c2.5,1.1,2.5,3,0,4.1L41.5,40.1z"/>
	<path class="st0" d="M48.6,33.3c-0.6,0.3-1.6,0.3-2.2,0L22.5,22.5c-0.6-0.3-0.6-0.7,0-1l3-1.3c0.6-0.3,1.6-0.3,2.2,0L51.5,31
		c0.6,0.3,0.6,0.7,0,1L48.6,33.3z"/>
	<path class="st2" d="M46.5,32C46.5,32,46.5,32,46.5,32l-20.6-9.3c0,0,0,0,0,0l7.1-19c0,0,0,0,0,0l20.6,9.4c0,0,0,0,0,0L46.5,32z"/>
	<line class="st3" x1="46.5" y1="32" x2="53.6" y2="12.9"/>
</g>
</svg>
